<?xml version="1.0" encoding="UTF-8"?><svg id="Icons" xmlns="http://www.w3.org/2000/svg" viewBox="0 0 100 100"><defs><style>.cls-1{stroke:#161c2d;}.cls-1,.cls-2{fill:none;stroke-linecap:round;stroke-linejoin:round;stroke-width:2px;}.cls-2{stroke:#cd2026;}</style></defs><path class="cls-2" d="m41.37,77.67c-.18.5-.27,1.03-.27,1.57,0,3.54,4.04,6.41,9.03,6.41s9.03-2.87,9.03-6.41c0-.5-.08-.98-.23-1.44"/><path class="cls-2" d="m38.46,21.57c-9.54,3.27-16.41,12.33-16.41,23,0,.72.03,1.44.09,2.15"/><path class="cls-2" d="m35.31,14.41c-12.19,3.86-21.03,15.28-21.03,28.76,0,1.18.07,2.34.2,3.48"/><path class="cls-2" d="m61.54,21.51c9.54,3.27,16.41,12.33,16.41,23,0,.72-.03,1.44-.09,2.15"/><path class="cls-2" d="m64.69,14.35c12.19,3.86,21.03,15.28,21.03,28.76,0,1.18-.07,2.34-.2,3.48"/><path class="cls-1" d="m57.37,77.54h16.05c8.7,0,2.32-8.36,2.32-8.36l-6.2-8.62-.06-13.26c0-10.77-8.73-19.5-19.51-19.5s-19.51,8.73-19.51,19.5v13.27l-6.21,8.62s-6.38,8.36,2.32,8.36h30.8Z"/><path class="cls-1" d="m50,27.7c3.06,0,5.53-2.48,5.53-5.53s-2.48-5.53-5.53-5.53-5.53,2.48-5.53,5.53,2.48,5.53,5.53,5.53Z"/></svg>